<svg xmlns="http://www.w3.org/2000/svg" xmlns:xlink="http://www.w3.org/1999/xlink" width="1920" zoomAndPan="magnify" viewBox="0 0 1440 809.999993" height="1080" preserveAspectRatio="xMidYMid meet" version="1.0"><defs><g/></defs><g fill="#ffffff" fill-opacity="1"><g transform="translate(388.520495, 433.678945)"><g/></g></g><g fill="#ffffff" fill-opacity="1"><g transform="translate(472.672834, 433.678945)"><g><path d="M 62.0625 -57.90625 L 39.359375 -85.421875 L 5.59375 -85.578125 L 38.078125 -43.34375 L 3.203125 0 L 41.59375 0.640625 L 60.78125 -28.3125 L 82.703125 0 L 121.578125 0 L 84.140625 -42.546875 L 119.5 -83.03125 L 82.21875 -83.5 Z M 62.0625 -57.90625 "/></g></g></g><g fill="#ffffff" fill-opacity="1"><g transform="translate(597.451514, 433.678945)"><g><path d="M 3.203125 -110.21875 L 8.15625 0 L 103.015625 -0.3125 L 100.140625 -36.15625 L 35.515625 -35.1875 L 35.359375 -81.109375 L 100.140625 -82.21875 L 101.09375 -110.21875 Z M 3.203125 -110.21875 "/></g></g></g><g fill="#ffffff" fill-opacity="1"><g transform="translate(703.673372, 433.678945)"><g><path d="M 24.640625 -105.90625 L 3.84375 -106.546875 L 3.203125 -0.3125 L 24 -1.125 L 24.640625 -36.640625 L 45.90625 -36.640625 L 45.90625 0.484375 L 76.140625 0.484375 L 76.140625 -61.265625 L 24.640625 -62.390625 Z M 24.640625 -105.90625 "/></g></g></g><g fill="#ffffff" fill-opacity="1"><g transform="translate(783.019811, 433.678945)"><g><path d="M 36 -33.4375 L 37.265625 -20.796875 L 82.859375 -20.796875 L 85.578125 -0.640625 L 8 0 L 3.203125 -84.625 L 82.546875 -86.0625 L 86.390625 -35.359375 Z M 33.4375 -51.515625 L 61.421875 -53.109375 L 59.984375 -68.3125 L 31.671875 -67.671875 Z M 33.4375 -51.515625 "/></g></g></g><g fill="#ffffff" fill-opacity="1"><g transform="translate(872.604501, 433.678945)"><g><path d="M 3.203125 -86.546875 L 4.3125 -35.671875 L 53.265625 -34.71875 L 52.953125 -19.03125 L 4.796875 -20.640625 L 3.203125 0.3125 L 86.0625 0.3125 L 85.421875 -49.75 L 38.546875 -52.953125 L 39.515625 -67.984375 L 86.21875 -67.984375 L 85.109375 -88.296875 Z M 3.203125 -86.546875 "/></g></g></g><g fill="#ffffff" fill-opacity="1"><g transform="translate(962.029225, 433.678945)"><g><path d="M 3.203125 -86.546875 L 4.3125 -35.671875 L 53.265625 -34.71875 L 52.953125 -19.03125 L 4.796875 -20.640625 L 3.203125 0.3125 L 86.0625 0.3125 L 85.421875 -49.75 L 38.546875 -52.953125 L 39.515625 -67.984375 L 86.21875 -67.984375 L 85.109375 -88.296875 Z M 3.203125 -86.546875 "/></g></g></g></svg>