<svg xmlns="http://www.w3.org/2000/svg" xmlns:xlink="http://www.w3.org/1999/xlink" width="1920" zoomAndPan="magnify" viewBox="0 0 1440 809.999993" height="1080" preserveAspectRatio="xMidYMid meet" version="1.0"><defs><g/></defs><g fill="#ffffff" fill-opacity="1"><g transform="translate(448.96856, 308.765415)"><g/></g></g><g fill="#ffffff" fill-opacity="1"><g transform="translate(491.495695, 308.765415)"><g><path d="M 31.375 -29.265625 L 19.890625 -43.171875 L 2.828125 -43.25 L 19.234375 -21.90625 L 1.609375 0 L 21.015625 0.328125 L 30.71875 -14.3125 L 41.796875 0 L 61.4375 0 L 42.53125 -21.5 L 60.390625 -41.953125 L 41.546875 -42.203125 Z M 31.375 -29.265625 "/></g></g></g><g fill="#ffffff" fill-opacity="1"><g transform="translate(554.553715, 308.765415)"><g><path d="M 1.609375 -55.703125 L 4.125 0 L 52.0625 -0.15625 L 50.609375 -18.265625 L 17.953125 -17.78125 L 17.859375 -40.984375 L 50.609375 -41.546875 L 51.09375 -55.703125 Z M 1.609375 -55.703125 "/></g></g></g><g fill="#ffffff" fill-opacity="1"><g transform="translate(608.233879, 308.765415)"><g><path d="M 12.453125 -53.515625 L 1.9375 -53.84375 L 1.609375 -0.15625 L 12.125 -0.5625 L 12.453125 -18.515625 L 23.203125 -18.515625 L 23.203125 0.25 L 38.484375 0.25 L 38.484375 -30.96875 L 12.453125 -31.53125 Z M 12.453125 -53.515625 "/></g></g></g><g fill="#ffffff" fill-opacity="1"><g transform="translate(648.33231, 308.765415)"><g><path d="M 18.1875 -16.890625 L 18.84375 -10.515625 L 41.875 -10.515625 L 43.25 -0.328125 L 4.046875 0 L 1.609375 -42.765625 L 41.71875 -43.5 L 43.65625 -17.859375 Z M 16.890625 -26.03125 L 31.046875 -26.84375 L 30.3125 -34.515625 L 16 -34.203125 Z M 16.890625 -26.03125 "/></g></g></g><g fill="#ffffff" fill-opacity="1"><g transform="translate(693.604732, 308.765415)"><g><path d="M 1.609375 -43.734375 L 2.1875 -18.03125 L 26.921875 -17.546875 L 26.765625 -9.625 L 2.421875 -10.421875 L 1.609375 0.15625 L 43.5 0.15625 L 43.171875 -25.140625 L 19.484375 -26.765625 L 19.96875 -34.359375 L 43.578125 -34.359375 L 43.015625 -44.625 Z M 1.609375 -43.734375 "/></g></g></g><g fill="#ffffff" fill-opacity="1"><g transform="translate(738.796315, 308.765415)"><g><path d="M 1.609375 -43.734375 L 2.1875 -18.03125 L 26.921875 -17.546875 L 26.765625 -9.625 L 2.421875 -10.421875 L 1.609375 0.15625 L 43.5 0.15625 L 43.171875 -25.140625 L 19.484375 -26.765625 L 19.96875 -34.359375 L 43.578125 -34.359375 L 43.015625 -44.625 Z M 1.609375 -43.734375 "/></g></g></g></svg>