<svg xmlns="http://www.w3.org/2000/svg" xmlns:xlink="http://www.w3.org/1999/xlink" width="1920" zoomAndPan="magnify" viewBox="0 0 1440 809.999993" height="1080" preserveAspectRatio="xMidYMid meet" version="1.0"><defs><g/><clipPath id="eea7ac1377"><path d="M 275 322.539062 L 319 322.539062 L 319 360 L 275 360 Z M 275 322.539062 " clip-rule="nonzero"/></clipPath></defs><path fill="#ffffff" d="M 483.679688 469.183594 C 480.753906 473.949219 476.46875 477.71875 471.378906 480.007812 C 466.984375 481.960938 462.378906 483.378906 457.648438 484.238281 C 450.222656 485.597656 442.890625 484.324219 435.875 481.71875 C 428.230469 478.847656 421.617188 473.742188 416.898438 467.0625 C 411.246094 459.367188 407.792969 450.277344 406.90625 440.761719 C 406.21875 434.566406 406.023438 428.324219 406.328125 422.097656 C 407.269531 407.636719 411.78125 394.523438 422.847656 384.523438 C 428.816406 379.070312 436.300781 375.566406 444.308594 374.476562 C 451.167969 373.375 458.1875 373.789062 464.871094 375.6875 C 469.789062 377.167969 474.34375 379.664062 478.238281 383.023438 C 479.964844 384.488281 481.660156 386.015625 483.21875 387.386719 L 483.21875 386.28125 C 483.21875 373.386719 483.097656 360.492188 483.28125 347.59375 C 483.363281 342.054688 484.683594 336.796875 489.183594 332.867188 C 492.09375 330.417969 495.726562 329 499.523438 328.832031 C 504.8125 328.421875 510.085938 328.710938 514.65625 332.007812 C 516.707031 333.371094 518.390625 335.21875 519.558594 337.386719 C 520.730469 339.554688 521.351562 341.976562 521.371094 344.441406 C 521.605469 384.84375 521.707031 425.246094 521.683594 465.644531 C 521.683594 472.046875 519.75 477.839844 513.835938 481.476562 C 509.1875 484.335938 504.023438 484.347656 498.894531 483.898438 C 496.511719 483.78125 494.191406 483.09375 492.128906 481.894531 C 490.066406 480.691406 488.316406 479.015625 487.03125 477.003906 C 485.714844 474.488281 484.59375 471.871094 483.679688 469.183594 Z M 444.511719 429.1875 C 444.804688 432.242188 444.960938 435.320312 445.382812 438.351562 C 446.785156 448.386719 453.949219 456.242188 465.316406 455.757812 C 468.867188 455.628906 472.296875 454.441406 475.164062 452.34375 C 478.03125 450.246094 480.207031 447.335938 481.40625 443.988281 C 483.738281 436.835938 484.371094 429.234375 483.257812 421.796875 C 482.347656 414.824219 479.882812 408.898438 473.699219 404.9375 C 466.214844 400.085938 454.515625 402.4375 449.507812 409.710938 C 445.410156 415.566406 444.671875 422.21875 444.511719 429.105469 Z M 444.511719 429.1875 " fill-opacity="1" fill-rule="nonzero"/><path fill="#ffffff" d="M 337.597656 394.851562 L 337.597656 348.320312 C 337.597656 343.265625 338.492188 338.429688 341.878906 334.359375 C 344.300781 331.535156 347.667969 329.695312 351.351562 329.183594 C 356.710938 328.238281 362.066406 328.335938 367.074219 330.90625 C 369.695312 332.160156 371.898438 334.140625 373.425781 336.613281 C 374.953125 339.085938 375.738281 341.949219 375.6875 344.855469 C 375.941406 376.972656 375.90625 409.09375 376.125 441.199219 C 376.125 446.472656 378.480469 452.109375 384.347656 453.199219 C 386.621094 453.515625 388.921875 453.515625 391.195312 453.199219 C 397.558594 452.675781 399.324219 453.539062 400.375 459.804688 C 400.96875 464.027344 400.96875 468.308594 400.375 472.53125 C 399.699219 478.433594 395.683594 481.789062 390.140625 482.929688 C 385.496094 484.03125 380.738281 484.589844 375.964844 484.589844 C 367.207031 484.289062 358.597656 482.882812 351.316406 477.195312 C 345.4375 472.617188 342.074219 466.480469 340.066406 459.5 C 337.960938 452.230469 337.648438 444.703125 337.648438 437.164062 C 337.636719 423.054688 337.621094 408.953125 337.597656 394.851562 Z M 337.597656 394.851562 " fill-opacity="1" fill-rule="nonzero"/><path fill="#ffffff" d="M 81.066406 385.121094 C 81.066406 372.078125 81.210938 359.035156 81.066406 346.007812 C 80.945312 337.910156 84.636719 332.300781 91.878906 329.667969 C 98.96875 327.097656 106.226562 327.113281 112.175781 332.734375 C 113.949219 334.292969 115.367188 336.214844 116.328125 338.371094 C 117.292969 340.527344 117.777344 342.867188 117.753906 345.230469 C 117.664062 370.621094 117.664062 396.011719 117.753906 421.40625 C 117.617188 429.984375 120.152344 438.390625 125.011719 445.453125 C 128.199219 449.683594 131.617188 453.730469 135.257812 457.574219 C 137.667969 460.523438 138.898438 464.261719 138.714844 468.070312 C 138.527344 471.878906 136.9375 475.480469 134.253906 478.179688 C 130.753906 481.832031 125.992188 484 120.945312 484.238281 C 114.707031 484.480469 109.539062 481.816406 105.378906 477.292969 C 101.75 473.476562 98.339844 469.453125 95.171875 465.246094 C 90.464844 458.628906 86.847656 451.300781 84.453125 443.539062 C 82 435.941406 80.835938 427.984375 81.019531 420 C 81.175781 408.378906 81.066406 396.742188 81.066406 385.121094 Z M 81.066406 385.121094 " fill-opacity="1" fill-rule="nonzero"/><path fill="#ffffff" d="M 234.585938 328.457031 C 243.984375 327.496094 251.921875 333.875 253.335938 341.535156 C 253.722656 344.402344 253.855469 347.296875 253.734375 350.1875 C 253.734375 375.007812 253.84375 399.878906 253.734375 424.628906 C 253.734375 434.773438 250.820312 444.324219 246.539062 453.488281 C 242.417969 462.09375 236.871094 469.9375 230.136719 476.6875 C 225.5625 481.378906 220.3125 484.78125 213.527344 484.261719 C 205.144531 483.632812 198.566406 478.796875 196.484375 470.734375 C 194.984375 464.894531 197.101562 459.742188 201.433594 455.71875 C 208.386719 449.464844 213.375 441.316406 215.777344 432.265625 C 216.53125 429.476562 216.9375 426.609375 216.988281 423.722656 C 217.195312 396.65625 217.167969 369.578125 217.472656 342.515625 C 217.53125 337.667969 220.859375 334.105469 224.644531 331.242188 C 226.027344 330.128906 227.621094 329.304688 229.332031 328.828125 C 231.039062 328.347656 232.828125 328.222656 234.585938 328.457031 Z M 234.585938 328.457031 " fill-opacity="1" fill-rule="nonzero"/><path fill="#ffffff" d="M 580.78125 392.449219 C 583.210938 389.078125 585.820312 385.84375 588.597656 382.753906 C 593.785156 377.632812 600.675781 374.613281 607.953125 374.269531 C 610.769531 373.953125 613.613281 374.003906 616.417969 374.414062 C 618.324219 374.726562 620.066406 375.679688 621.363281 377.117188 C 622.652344 378.558594 623.414062 380.394531 623.519531 382.328125 C 624.160156 387.15625 624.160156 392.046875 623.519531 396.875 C 622.550781 402.8125 618.003906 405.832031 612.257812 406.800781 C 607.597656 407.589844 602.847656 407.832031 598.238281 408.800781 C 587.871094 410.992188 582.417969 418.023438 582.417969 428.664062 C 582.417969 441.320312 582.585938 453.972656 582.34375 466.613281 C 582.214844 473.449219 579.574219 479.28125 572.957031 482.371094 C 566.339844 485.460938 553.179688 484.878906 548.003906 478.46875 C 545.109375 474.910156 543.554688 470.449219 543.613281 465.863281 C 543.503906 441.488281 543.445312 417.101562 543.613281 392.714844 C 543.613281 384.414062 546.902344 377.84375 554.972656 375.421875 C 561.9375 373.324219 568.878906 373.53125 574.964844 378.304688 C 578.328125 380.949219 579.804688 384.707031 580.46875 388.824219 C 580.636719 390.230469 580.710938 391.722656 580.78125 392.449219 Z M 580.78125 392.449219 " fill-opacity="1" fill-rule="nonzero"/><path fill="#ffffff" d="M 316.175781 429.113281 C 316.175781 440.460938 316.34375 451.804688 316.066406 463.136719 C 315.910156 466.839844 315.167969 470.492188 313.863281 473.960938 C 312.183594 478.652344 308.519531 481.523438 303.621094 482.785156 C 298.238281 484.320312 292.492188 483.984375 287.328125 481.824219 C 281.8125 479.472656 279.257812 474.84375 278.277344 469.269531 C 277.816406 466.375 277.601562 463.449219 277.636719 460.519531 C 277.589844 438.515625 277.589844 416.515625 277.636719 394.523438 C 277.636719 389.457031 278.617188 384.546875 281.929688 380.402344 C 284.359375 377.429688 287.8125 375.484375 291.609375 374.949219 C 296.5 373.882812 301.601562 374.378906 306.195312 376.367188 C 311.746094 378.914062 314.542969 383.53125 315.507812 389.324219 C 315.941406 392.074219 316.152344 394.855469 316.140625 397.636719 C 316.210938 408.085938 316.175781 418.605469 316.175781 429.113281 Z M 316.175781 429.113281 " fill-opacity="1" fill-rule="nonzero"/><path fill="#ffffff" d="M 185.914062 383.636719 C 185.914062 396.4375 185.757812 409.234375 185.972656 422.035156 C 186.132812 431.003906 178.074219 438.03125 170.78125 439.003906 C 163.488281 439.972656 156.992188 437.910156 152.636719 431.875 C 150.609375 429.121094 149.425781 425.839844 149.226562 422.421875 C 148.960938 396.484375 149.117188 370.546875 149.058594 344.621094 C 149.058594 336.429688 157.816406 327.773438 165.421875 328.378906 C 169.570312 328.707031 173.792969 327.933594 177.589844 330.5625 C 182.914062 334.269531 186.058594 338.972656 185.984375 345.710938 C 185.828125 358.355469 185.914062 370.996094 185.914062 383.636719 Z M 185.914062 383.636719 " fill-opacity="1" fill-rule="nonzero"/><g clip-path="url(#eea7ac1377)"><path fill="#ffffff" d="M 296.953125 322.539062 C 302.878906 322.539062 308.371094 323.847656 313.003906 327.765625 C 315.765625 330.125 317.476562 333.484375 317.769531 337.109375 C 318.289062 342.234375 318.496094 347.398438 315.265625 351.945312 C 313.851562 353.988281 312 355.691406 309.84375 356.925781 C 307.6875 358.15625 305.285156 358.890625 302.808594 359.070312 C 297.902344 359.472656 292.964844 359.261719 288.113281 358.441406 C 280.574219 357.15625 275.542969 350.34375 275.457031 342.683594 C 275.457031 338.707031 275.589844 334.804688 277.707031 331.289062 C 280.78125 326.199219 285.621094 324.019531 291.242188 323.132812 C 293.132812 322.820312 295.042969 322.722656 296.953125 322.539062 Z M 296.953125 322.539062 " fill-opacity="1" fill-rule="nonzero"/></g><g fill="#ffffff" fill-opacity="1"><g transform="translate(721.573807, 478.054206)"><g/></g></g><g fill="#ffffff" fill-opacity="1"><g transform="translate(827.039489, 478.054206)"><g><path d="M 4.015625 -138.140625 L 10.21875 0 L 129.125 -0.40625 L 125.515625 -45.3125 L 44.515625 -44.109375 L 44.3125 -101.65625 L 125.515625 -103.0625 L 126.71875 -138.140625 Z M 4.015625 -138.140625 "/></g></g></g><g fill="#ffffff" fill-opacity="1"><g transform="translate(960.170788, 478.054206)"><g><path d="M 30.875 -132.734375 L 4.8125 -133.53125 L 4.015625 -0.40625 L 30.078125 -1.40625 L 30.875 -45.921875 L 57.546875 -45.921875 L 57.546875 0.59375 L 95.4375 0.59375 L 95.4375 -76.796875 L 30.875 -78.1875 Z M 30.875 -132.734375 "/></g></g></g><g fill="#ffffff" fill-opacity="1"><g transform="translate(1059.618247, 478.054206)"><g><path d="M 45.109375 -41.90625 L 46.71875 -26.0625 L 103.859375 -26.0625 L 107.265625 -0.796875 L 10.03125 0 L 4.015625 -106.0625 L 103.453125 -107.875 L 108.265625 -44.3125 Z M 41.90625 -64.5625 L 76.984375 -66.5625 L 75.1875 -85.609375 L 39.703125 -84.8125 Z M 41.90625 -64.5625 "/></g></g></g><g fill="#ffffff" fill-opacity="1"><g transform="translate(1171.897666, 478.054206)"><g><path d="M 4.015625 -108.46875 L 5.40625 -44.71875 L 66.765625 -43.515625 L 66.359375 -23.859375 L 6.015625 -25.859375 L 4.015625 0.40625 L 107.875 0.40625 L 107.0625 -62.359375 L 48.328125 -66.359375 L 49.53125 -85.21875 L 108.0625 -85.21875 L 106.671875 -110.671875 Z M 4.015625 -108.46875 "/></g></g></g><g fill="#ffffff" fill-opacity="1"><g transform="translate(1283.97658, 478.054206)"><g><path d="M 4.015625 -108.46875 L 5.40625 -44.71875 L 66.765625 -43.515625 L 66.359375 -23.859375 L 6.015625 -25.859375 L 4.015625 0.40625 L 107.875 0.40625 L 107.0625 -62.359375 L 48.328125 -66.359375 L 49.53125 -85.21875 L 108.0625 -85.21875 L 106.671875 -110.671875 Z M 4.015625 -108.46875 "/></g></g></g><g fill="#ffffff" fill-opacity="1"><g transform="translate(547.900107, 479.69684)"><g/></g></g><g fill="#ffffff" fill-opacity="1"><g transform="translate(647.120962, 479.69684)"><g><path d="M 73.1875 -68.28125 L 46.40625 -100.71875 L 6.609375 -100.921875 L 44.890625 -51.125 L 3.765625 0 L 49.046875 0.75 L 71.671875 -33.390625 L 97.515625 0 L 143.359375 0 L 99.21875 -50.171875 L 140.90625 -97.890625 L 96.953125 -98.46875 Z M 73.1875 -68.28125 "/></g></g></g></svg>